<!DOCTYPE svg PUBLIC "-//W3C//DTD SVG 1.1//EN" "http://www.w3.org/Graphics/SVG/1.1/DTD/svg11.dtd">
<svg xmlns="http://www.w3.org/2000/svg" version="1.1" width="600px" height="600px" style="shape-rendering:geometricPrecision; text-rendering:geometricPrecision; image-rendering:optimizeQuality; fill-rule:evenodd; clip-rule:evenodd" xmlns:xlink="http://www.w3.org/1999/xlink">
<g><path style="opacity:0.91" fill="#000000" d="M 173.5,137.5 C 182.167,137.5 190.833,137.5 199.5,137.5C 199.5,184.167 199.5,230.833 199.5,277.5C 190.833,277.5 182.167,277.5 173.5,277.5C 173.5,230.833 173.5,184.167 173.5,137.5 Z"/></g>
<g><path style="opacity:0.907" fill="#000000" d="M 303.5,157.5 C 303.5,158.833 304.167,159.5 305.5,159.5C 309.218,166.323 311.551,173.657 312.5,181.5C 313.833,199.5 313.833,217.5 312.5,235.5C 311.621,240.232 310.621,244.898 309.5,249.5C 308.167,249.5 307.5,250.167 307.5,251.5C 307.762,252.978 307.429,254.311 306.5,255.5C 292.88,274.27 274.546,281.27 251.5,276.5C 238.824,272.817 229.49,265.15 223.5,253.5C 223.5,252.167 222.833,251.5 221.5,251.5C 220.715,248.142 219.715,244.809 218.5,241.5C 217.501,230.186 217.168,218.853 217.5,207.5C 226.167,207.5 234.833,207.5 243.5,207.5C 243.168,217.522 243.501,227.522 244.5,237.5C 245.527,239.553 246.527,241.553 247.5,243.5C 247.5,244.833 248.167,245.5 249.5,245.5C 249.5,246.833 250.167,247.5 251.5,247.5C 251.5,248.833 252.167,249.5 253.5,249.5C 257.441,250.823 261.441,252.157 265.5,253.5C 267.972,252.008 270.639,251.342 273.5,251.5C 275.598,252.914 276.598,252.248 276.5,249.5C 281.283,245.958 284.616,241.292 286.5,235.5C 287.833,217.5 287.833,199.5 286.5,181.5C 285.19,177.243 283.523,173.243 281.5,169.5C 277.757,167.477 273.757,165.81 269.5,164.5C 266.914,163.52 264.247,163.187 261.5,163.5C 260.167,163.5 259.5,164.167 259.5,165.5C 252.365,166.636 247.699,170.636 245.5,177.5C 244.167,177.5 243.5,178.167 243.5,179.5C 243.5,184.833 243.5,190.167 243.5,195.5C 234.833,195.5 226.167,195.5 217.5,195.5C 217.244,186.737 217.91,178.071 219.5,169.5C 220.833,169.5 221.5,168.833 221.5,167.5C 221.917,164.657 222.917,161.99 224.5,159.5C 242.401,137.921 264.068,132.921 289.5,144.5C 295.162,147.831 299.829,152.165 303.5,157.5 Z"/></g>
<g><path style="opacity:0.883" fill="#000000" d="M 329.5,137.5 C 338.167,137.5 346.833,137.5 355.5,137.5C 355.5,152.833 355.5,168.167 355.5,183.5C 346.833,183.5 338.167,183.5 329.5,183.5C 329.5,168.167 329.5,152.833 329.5,137.5 Z"/></g>
<g><path style="opacity:0.92" fill="#000000" d="M 422.5,137.5 C 422.187,150.246 422.52,162.913 423.5,175.5C 424.046,188.739 419.379,199.739 409.5,208.5C 419.403,217.303 424.069,228.303 423.5,241.5C 422.521,253.42 422.188,265.42 422.5,277.5C 414.833,277.5 407.167,277.5 399.5,277.5C 399.832,264.816 399.499,252.149 398.5,239.5C 397.19,235.243 395.523,231.243 393.5,227.5C 389.989,226.356 386.656,224.689 383.5,222.5C 371.02,219.573 362.02,223.906 356.5,235.5C 355.501,249.484 355.167,263.484 355.5,277.5C 346.833,277.5 338.167,277.5 329.5,277.5C 329.167,262.152 329.501,246.819 330.5,231.5C 331.715,228.191 332.715,224.858 333.5,221.5C 334.833,221.5 335.5,220.833 335.5,219.5C 341.743,207.033 351.743,199.367 365.5,196.5C 378.248,197.593 388.581,193.26 396.5,183.5C 397.167,181.5 397.833,179.5 398.5,177.5C 399.499,164.183 399.833,150.85 399.5,137.5C 407.167,137.5 414.833,137.5 422.5,137.5 Z"/></g>
<g><path style="opacity:0.47" fill="#0d0d0d" d="M 422.5,137.5 C 423.5,137.5 424.5,137.5 425.5,137.5C 426.147,150.544 425.48,163.211 423.5,175.5C 422.52,162.913 422.187,150.246 422.5,137.5 Z"/></g>
<g><path style="opacity:0.055" fill="#1a1a1a" d="M 303.5,157.5 C 304.5,157.833 305.167,158.5 305.5,159.5C 304.167,159.5 303.5,158.833 303.5,157.5 Z"/></g>
<g><path style="opacity:0.012" fill="#1b1b1b" d="M 261.5,163.5 C 261.167,164.5 260.5,165.167 259.5,165.5C 259.5,164.167 260.167,163.5 261.5,163.5 Z"/></g>
<g><path style="opacity:0.055" fill="#1a1a1a" d="M 221.5,167.5 C 221.5,168.833 220.833,169.5 219.5,169.5C 219.833,168.5 220.5,167.833 221.5,167.5 Z"/></g>
<g><path style="opacity:0.012" fill="#1b1b1b" d="M 245.5,177.5 C 245.167,178.5 244.5,179.167 243.5,179.5C 243.5,178.167 244.167,177.5 245.5,177.5 Z"/></g>
<g><path style="opacity:0.071" fill="#1a1a1a" d="M 335.5,219.5 C 335.5,220.833 334.833,221.5 333.5,221.5C 333.5,220.167 334.167,219.5 335.5,219.5 Z"/></g>
<g><path style="opacity:0.465" fill="#0d0d0d" d="M 423.5,241.5 C 425.479,253.12 426.146,265.12 425.5,277.5C 424.5,277.5 423.5,277.5 422.5,277.5C 422.188,265.42 422.521,253.42 423.5,241.5 Z"/></g>
<g><path style="opacity:0.055" fill="#1a1a1a" d="M 247.5,243.5 C 248.5,243.833 249.167,244.5 249.5,245.5C 248.167,245.5 247.5,244.833 247.5,243.5 Z"/></g>
<g><path style="opacity:0.071" fill="#1a1a1a" d="M 251.5,247.5 C 252.833,247.5 253.5,248.167 253.5,249.5C 253.5,248.167 252.833,247.5 251.5,247.5 Z"/></g>
<g><path style="opacity:0.196" fill="#0f0f0f" d="M 276.5,249.5 C 276.598,252.248 275.598,252.914 273.5,251.5C 273.821,249.952 274.821,249.285 276.5,249.5 Z"/></g>
<g><path style="opacity:0.114" fill="#151515" d="M 309.5,249.5 C 309.5,250.833 308.833,251.5 307.5,251.5C 307.5,250.167 308.167,249.5 309.5,249.5 Z"/></g>
<g><path style="opacity:0.071" fill="#1a1a1a" d="M 221.5,251.5 C 222.833,251.5 223.5,252.167 223.5,253.5C 222.167,253.5 221.5,252.833 221.5,251.5 Z"/></g>
<g><path style="opacity:0.428" fill="#111111" d="M 249.5,309.5 C 249.389,310.117 249.056,310.617 248.5,311C 237.505,311.5 226.505,311.667 215.5,311.5C 214.167,311.5 212.833,311.5 211.5,311.5C 211.611,310.883 211.944,310.383 212.5,310C 224.829,309.5 237.162,309.333 249.5,309.5 Z"/></g>
<g><path style="opacity:0.691" fill="#0a0a0a" d="M 249.5,309.5 C 255.5,309.5 261.5,309.5 267.5,309.5C 266.77,311.045 265.437,311.878 263.5,312C 247.328,312.828 231.328,312.661 215.5,311.5C 226.505,311.667 237.505,311.5 248.5,311C 249.056,310.617 249.389,310.117 249.5,309.5 Z"/></g>
<g><path style="opacity:0.817" fill="#000000" d="M 267.5,309.5 C 362.167,309.5 456.833,309.5 551.5,309.5C 551.5,312.833 551.5,316.167 551.5,319.5C 496.833,319.5 442.167,319.5 387.5,319.5C 386.167,319.5 384.833,319.5 383.5,319.5C 367.339,318.338 351.005,318.172 334.5,319C 333.748,319.671 333.414,320.504 333.5,321.5C 238.833,321.5 144.167,321.5 49.5,321.5C 49.5,318.167 49.5,314.833 49.5,311.5C 103.5,311.5 157.5,311.5 211.5,311.5C 212.833,311.5 214.167,311.5 215.5,311.5C 231.328,312.661 247.328,312.828 263.5,312C 265.437,311.878 266.77,311.045 267.5,309.5 Z"/></g>
<g><path style="opacity:0.704" fill="#0a0a0a" d="M 383.5,319.5 C 372.495,319.333 361.495,319.5 350.5,320C 349.944,320.383 349.611,320.883 349.5,321.5C 344.167,321.5 338.833,321.5 333.5,321.5C 333.414,320.504 333.748,319.671 334.5,319C 351.005,318.172 367.339,318.338 383.5,319.5 Z"/></g>
<g><path style="opacity:0.428" fill="#111111" d="M 383.5,319.5 C 384.833,319.5 386.167,319.5 387.5,319.5C 387.389,320.117 387.056,320.617 386.5,321C 374.171,321.5 361.838,321.667 349.5,321.5C 349.611,320.883 349.944,320.383 350.5,320C 361.495,319.5 372.495,319.333 383.5,319.5 Z"/></g>
<g><path style="opacity:0.795" fill="#010101" d="M 93.5,373.5 C 92.1667,373.5 91.5,374.167 91.5,375.5C 87.5,374.167 83.5,372.833 79.5,371.5C 83.102,362.585 89.7686,357.252 99.5,355.5C 114.631,356.634 123.297,364.634 125.5,379.5C 120.833,379.5 116.167,379.5 111.5,379.5C 110.196,374.195 106.862,370.862 101.5,369.5C 98.1589,369.836 95.4922,371.17 93.5,373.5 Z"/></g>
<g><path style="opacity:0.817" fill="#000000" d="M 179.5,409.5 C 178.167,409.5 177.5,410.167 177.5,411.5C 175.317,417.356 171.317,421.689 165.5,424.5C 157.344,427.821 149.344,427.154 141.5,422.5C 133.185,413.885 129.851,403.552 131.5,391.5C 136.167,391.5 140.833,391.5 145.5,391.5C 145.172,396.875 145.505,402.208 146.5,407.5C 148.734,410.749 151.734,412.749 155.5,413.5C 158.198,412.809 160.865,412.142 163.5,411.5C 163.917,408.657 164.917,405.99 166.5,403.5C 168.151,393.321 167.485,383.321 164.5,373.5C 157.752,367.69 151.752,368.356 146.5,375.5C 145.513,378.768 145.18,382.102 145.5,385.5C 140.833,385.5 136.167,385.5 131.5,385.5C 130.682,368.152 138.849,358.152 156,355.5C 166.359,356.767 173.859,362.1 178.5,371.5C 179.499,384.149 179.832,396.816 179.5,409.5 Z"/></g>
<g><path style="opacity:0.826" fill="#000000" d="M 187.5,355.5 C 192.167,355.5 196.833,355.5 201.5,355.5C 201.5,373.5 201.5,391.5 201.5,409.5C 196.833,409.5 192.167,409.5 187.5,409.5C 187.5,391.5 187.5,373.5 187.5,355.5 Z"/></g>
<g><path style="opacity:0.822" fill="#000000" d="M 231.5,355.5 C 236.167,355.5 240.833,355.5 245.5,355.5C 245.5,371.5 245.5,387.5 245.5,403.5C 240.833,403.5 236.167,403.5 231.5,403.5C 231.5,387.5 231.5,371.5 231.5,355.5 Z"/></g>
<g><path style="opacity:0.813" fill="#000000" d="M 277.5,413.5 C 276.167,413.5 275.5,414.167 275.5,415.5C 273.154,419.508 269.821,422.508 265.5,424.5C 262.064,425.192 258.73,426.192 255.5,427.5C 252.27,426.192 248.936,425.192 245.5,424.5C 234.568,418.65 234.902,413.65 246.5,409.5C 249.291,411.289 252.291,412.622 255.5,413.5C 258.198,412.809 260.865,412.142 263.5,411.5C 263.917,408.657 264.917,405.99 266.5,403.5C 267.499,387.514 267.833,371.514 267.5,355.5C 271.5,355.5 275.5,355.5 279.5,355.5C 280.064,374.939 279.397,394.272 277.5,413.5 Z"/></g>
<g><path style="opacity:0.823" fill="#000000" d="M 283.5,355.5 C 300.167,355.5 316.833,355.5 333.5,355.5C 333.5,360.167 333.5,364.833 333.5,369.5C 316.833,369.5 300.167,369.5 283.5,369.5C 283.5,364.833 283.5,360.167 283.5,355.5 Z"/></g>
<g><path style="opacity:0.114" fill="#151515" d="M 339.5,355.5 C 339.5,378.833 339.5,402.167 339.5,425.5C 338.168,414.186 337.501,402.52 337.5,390.5C 337.501,378.48 338.168,366.814 339.5,355.5 Z"/></g>
<g><path style="opacity:0.866" fill="#000000" d="M 339.5,355.5 C 343.5,355.5 347.5,355.5 351.5,355.5C 351.5,378.833 351.5,402.167 351.5,425.5C 347.5,425.5 343.5,425.5 339.5,425.5C 339.5,402.167 339.5,378.833 339.5,355.5 Z"/></g>
<g><path style="opacity:0.785" fill="#010101" d="M 489.5,355.5 C 506.712,354.728 516.712,362.728 519.5,379.5C 514.833,379.5 510.167,379.5 505.5,379.5C 504.782,375.758 502.782,372.758 499.5,370.5C 496.833,369.167 494.167,369.167 491.5,370.5C 488.567,371.771 485.901,373.438 483.5,375.5C 480.349,373.587 477.016,372.254 473.5,371.5C 473.238,370.022 473.571,368.689 474.5,367.5C 478.767,362.195 483.767,358.195 489.5,355.5 Z"/></g>
<g><path style="opacity:0.819" fill="#000000" d="M 398.5,361.5 C 398.833,364.5 400.5,366.167 403.5,366.5C 404.725,367.937 405.725,369.604 406.5,371.5C 407.833,384.833 407.833,398.167 406.5,411.5C 404.311,414.656 402.644,417.989 401.5,421.5C 395.956,423.682 390.289,425.682 384.5,427.5C 374.495,426.841 367.161,422.174 362.5,413.5C 360.285,406.327 359.285,398.994 359.5,391.5C 364.167,391.5 368.833,391.5 373.5,391.5C 373.172,396.875 373.505,402.208 374.5,407.5C 379.752,414.644 385.752,415.31 392.5,409.5C 393.167,408.167 393.833,406.833 394.5,405.5C 395.833,396.167 395.833,386.833 394.5,377.5C 391.411,371.123 386.411,368.789 379.5,370.5C 374.417,374.197 372.417,379.197 373.5,385.5C 368.833,385.5 364.167,385.5 359.5,385.5C 358.796,367.877 367.129,357.877 384.5,355.5C 389.596,356.746 394.263,358.746 398.5,361.5 Z"/></g>
<g><path style="opacity:0.814" fill="#000000" d="M 437.5,355.5 C 444.426,356.698 451.093,358.698 457.5,361.5C 458.644,365.011 460.311,368.344 462.5,371.5C 463.5,390.155 463.833,408.821 463.5,427.5C 459.5,427.5 455.5,427.5 451.5,427.5C 451.833,410.82 451.499,394.153 450.5,377.5C 447.411,371.123 442.411,368.789 435.5,370.5C 430.417,374.197 428.417,379.197 429.5,385.5C 424.833,385.5 420.167,385.5 415.5,385.5C 414.656,369.093 421.989,359.093 437.5,355.5 Z"/></g>
<g><path style="opacity:0.24" fill="#0d0d0d" d="M 398.5,361.5 C 401.5,361.833 403.167,363.5 403.5,366.5C 403.167,363.5 401.5,361.833 398.5,361.5 Z"/></g>
<g><path style="opacity:0.071" fill="#161616" d="M 93.5,373.5 C 93.5,374.833 92.8333,375.5 91.5,375.5C 91.5,374.167 92.1667,373.5 93.5,373.5 Z"/></g>
<g><path style="opacity:0.826" fill="#000000" d="M 301.5,373.5 C 306.167,373.5 310.833,373.5 315.5,373.5C 315.5,391.5 315.5,409.5 315.5,427.5C 310.833,427.5 306.167,427.5 301.5,427.5C 301.5,409.5 301.5,391.5 301.5,373.5 Z"/></g>
<g><path style="opacity:0.812" fill="#000000" d="M 81.5,415.5 C 82.9143,413.402 82.2476,412.402 79.5,412.5C 78.0475,409.014 77.3808,405.347 77.5,401.5C 81.5546,401.176 85.5546,401.509 89.5,402.5C 91.6644,405.159 92.9977,408.159 93.5,411.5C 96.135,412.142 98.8016,412.809 101.5,413.5C 109.066,411.626 112.066,406.959 110.5,399.5C 102.173,398.107 93.8394,396.774 85.5,395.5C 85.5,394.167 84.8333,393.5 83.5,393.5C 81.8702,391.641 80.2035,389.641 78.5,387.5C 77.52,384.914 77.1866,382.247 77.5,379.5C 82.1667,379.5 86.8333,379.5 91.5,379.5C 91.5,380.833 91.5,382.167 91.5,383.5C 99.4035,384.892 107.403,385.892 115.5,386.5C 120.704,388.37 123.704,392.037 124.5,397.5C 126.355,414.659 118.688,424.659 101.5,427.5C 96.7222,426.139 92.0555,424.472 87.5,422.5C 85.0798,420.422 83.0798,418.088 81.5,415.5 Z"/></g>
<g><path style="opacity:0.82" fill="#000000" d="M 519.5,407.5 C 518.167,407.5 517.5,408.167 517.5,409.5C 516.634,414.891 513.967,419.224 509.5,422.5C 496.192,429.263 484.525,426.93 474.5,415.5C 472.546,411.02 471.546,406.353 471.5,401.5C 475.555,401.176 479.555,401.509 483.5,402.5C 485.664,405.159 486.998,408.159 487.5,411.5C 490.135,412.142 492.802,412.809 495.5,413.5C 503.066,411.626 506.066,406.959 504.5,399.5C 497.009,397.906 489.343,396.906 481.5,396.5C 478.615,395.746 476.615,394.08 475.5,391.5C 476.914,389.402 476.248,388.402 473.5,388.5C 471.758,385.855 471.091,382.855 471.5,379.5C 476.167,379.5 480.833,379.5 485.5,379.5C 485.5,380.833 485.5,382.167 485.5,383.5C 493.403,384.892 501.403,385.892 509.5,386.5C 514.704,388.37 517.704,392.037 518.5,397.5C 519.487,400.768 519.82,404.102 519.5,407.5 Z"/></g>
<g><path style="opacity:0.196" fill="#0f0f0f" d="M 473.5,388.5 C 476.248,388.402 476.914,389.402 475.5,391.5C 473.952,391.179 473.285,390.179 473.5,388.5 Z"/></g>
<g><path style="opacity:0.81" fill="#000000" d="M 415.5,391.5 C 420.167,391.5 424.833,391.5 429.5,391.5C 429.5,403.5 429.5,415.5 429.5,427.5C 424.833,427.5 420.167,427.5 415.5,427.5C 415.5,415.5 415.5,403.5 415.5,391.5 Z"/></g>
<g><path style="opacity:0.071" fill="#141414" d="M 83.5,393.5 C 84.8333,393.5 85.5,394.167 85.5,395.5C 84.1667,395.5 83.5,394.833 83.5,393.5 Z"/></g>
<g><path style="opacity:0.114" fill="#151515" d="M 519.5,407.5 C 519.5,408.833 518.833,409.5 517.5,409.5C 517.5,408.167 518.167,407.5 519.5,407.5 Z"/></g>
<g><path style="opacity:0.114" fill="#151515" d="M 179.5,409.5 C 179.5,410.833 178.833,411.5 177.5,411.5C 177.5,410.167 178.167,409.5 179.5,409.5 Z"/></g>
<g><path style="opacity:0.2" fill="#101010" d="M 79.5,412.5 C 82.2476,412.402 82.9143,413.402 81.5,415.5C 79.9519,415.179 79.2852,414.179 79.5,412.5 Z"/></g>
<g><path style="opacity:0.802" fill="#000000" d="M 198.5,425.5 C 198.598,422.752 197.598,422.086 195.5,423.5C 193.692,422.082 193.025,420.082 193.5,417.5C 196.012,417.577 198.012,416.577 199.5,414.5C 209.478,413.501 219.478,413.168 229.5,413.5C 229.5,418.167 229.5,422.833 229.5,427.5C 219.06,427.902 208.727,427.235 198.5,425.5 Z"/></g>
<g><path style="opacity:0.071" fill="#1a1a1a" d="M 277.5,413.5 C 277.5,414.833 276.833,415.5 275.5,415.5C 275.5,414.167 276.167,413.5 277.5,413.5 Z"/></g>
<g><path style="opacity:0.2" fill="#101010" d="M 198.5,425.5 C 196.821,425.715 195.821,425.048 195.5,423.5C 197.598,422.086 198.598,422.752 198.5,425.5 Z"/></g>
</svg>
